<?xml version="1.0" encoding="UTF-8" standalone="no"?>
<svg
   xmlns:dc="http://purl.org/dc/elements/1.1/"
   xmlns:cc="http://creativecommons.org/ns#"
   xmlns:rdf="http://www.w3.org/1999/02/22-rdf-syntax-ns#"
   xmlns:svg="http://www.w3.org/2000/svg"
   xmlns="http://www.w3.org/2000/svg"
   xmlns:sodipodi="http://sodipodi.sourceforge.net/DTD/sodipodi-0.dtd"
   xmlns:inkscape="http://www.inkscape.org/namespaces/inkscape"
   width="205"
   height="145"
   viewBox="0 0 41.984 29.703508"
   preserveAspectRatio="xMidYMid"
   version="1.1"
   id="svg19"
   sodipodi:docname="sqlite.svg"
   inkscape:version="0.92.3 (2405546, 2018-03-11)">
  <metadata
     id="metadata23">
    <rdf:RDF>
      <cc:Work
         rdf:about="">
        <dc:format>image/svg+xml</dc:format>
        <dc:type
           rdf:resource="http://purl.org/dc/dcmitype/StillImage" />
        <dc:title></dc:title>
      </cc:Work>
    </rdf:RDF>
  </metadata>
  <sodipodi:namedview
     pagecolor="#ffffff"
     bordercolor="#666666"
     borderopacity="1"
     objecttolerance="10"
     gridtolerance="10"
     guidetolerance="10"
     inkscape:pageopacity="0"
     inkscape:pageshadow="2"
     inkscape:window-width="1920"
     inkscape:window-height="1028"
     id="namedview21"
     showgrid="false"
     inkscape:zoom="1.6963163"
     inkscape:cx="67.000862"
     inkscape:cy="96.242395"
     inkscape:window-x="1080"
     inkscape:window-y="811"
     inkscape:window-maximized="1"
     inkscape:current-layer="svg19" />
  <defs
     id="defs9">
    <linearGradient
       x1="92.697227"
       y1="17.660637"
       x2="92.697227"
       y2="157.9556"
       id="a"
       gradientTransform="matrix(0.07667343,0,0,0.08095818,0.60381492,4.3050314)"
       gradientUnits="userSpaceOnUse">
      <stop
         stop-color="#97D9F6"
         offset="0%"
         id="stop2" />
      <stop
         stop-color="#0F80CC"
         offset="92.024%"
         id="stop4" />
      <stop
         stop-color="#0F80CC"
         offset="100%"
         id="stop6" />
    </linearGradient>
  </defs>
  <path
     d="m 15.9294,13.13261 c -0.537403,0 -0.974434,0.159159 -1.309434,0.477055 -0.334922,0.318296 -0.504865,0.735473 -0.504865,1.246719 0,0.264882 0.04215,0.506442 0.125271,0.727753 0.0832,0.221785 0.212645,0.42726 0.386607,0.61296 0.173961,0.185779 0.522199,0.438134 1.041166,0.759109 0.636912,0.388735 1.053614,0.704276 1.253654,0.950641 0.200119,0.246129 0.299468,0.504077 0.299468,0.773054 0,0.360056 -0.118488,0.647547 -0.362184,0.863581 -0.244,0.216191 -0.570412,0.323814 -0.974984,0.323814 -0.426788,0 -0.798583,-0.1504 -1.117826,-0.449083 -0.319244,-0.299233 -0.480441,-0.694977 -0.484065,-1.191019 h -0.198543 v 1.800356 h 0.198543 c 0.06067,-0.170502 0.144494,-0.257634 0.254244,-0.257634 0.05279,0 0.176482,0.03632 0.369116,0.104394 0.468702,0.166799 0.853575,0.247234 1.156117,0.247234 0.521329,0 0.966396,-0.182549 1.337168,-0.553634 0.370296,-0.370926 0.557179,-0.818357 0.557179,-1.340713 0,-0.404963 -0.123391,-0.765414 -0.365571,-1.079456 -0.242269,-0.314517 -0.713334,-0.680328 -1.417373,-1.100416 -0.60579,-0.363993 -0.999014,-0.66039 -1.180461,-0.891472 -0.181761,-0.230767 -0.275122,-0.486033 -0.275122,-0.76612 0,-0.302936 0.111325,-0.546308 0.330824,-0.727831 0.219501,-0.181606 0.50715,-0.27158 0.867127,-0.27158 0.404963,0 0.742643,0.120233 1.009809,0.362182 0.266929,0.242349 0.421273,0.578218 0.466654,1.009811 h 0.198542 v -1.559978 h -0.184596 c -0.0226,0.0795 -0.04348,0.130305 -0.06273,0.153158 -0.01866,0.0227 -0.0546,0.03482 -0.107934,0.03482 -0.06422,0 -0.178688,-0.02703 -0.341305,-0.08013 C 16.545663,13.192944 16.224608,13.1326 15.929316,13.1326 Z m 6.487455,0 c -0.654797,0 -1.249321,0.154422 -1.78641,0.463187 -0.537954,0.308213 -0.963798,0.736261 -1.277998,1.281465 -0.314124,0.545205 -0.470119,1.124129 -0.470119,1.741187 0,0.828835 0.271339,1.567381 0.818356,2.214694 0.547252,0.646837 1.203072,1.049909 1.963994,1.204884 0.173961,0.0906 0.422849,0.3246 0.74871,0.703406 0.367147,0.427419 0.677803,0.735712 0.933228,0.919285 a 2.8041756,2.8041756 0 0 0 0.821746,0.407484 c 0.291509,0.0887 0.606579,0.13235 0.947252,0.13235 0.412606,0 0.781959,-0.07178 1.107345,-0.219421 L 26.149849,21.8 c -0.188851,0.06814 -0.390307,0.101003 -0.602402,0.101003 -0.287965,0 -0.578924,-0.09494 -0.870592,-0.285525 -0.291275,-0.191135 -0.655507,-0.555682 -1.089937,-1.09348 -0.204213,-0.257632 -0.345164,-0.420248 -0.424896,-0.483986 0.832619,-0.162615 1.517195,-0.566083 2.051134,-1.211898 0.533701,-0.64542 0.800867,-1.382075 0.800867,-2.207761 0,-0.980263 -0.34879,-1.804212 -1.041166,-2.475871 -0.693011,-0.671814 -1.545169,-1.009887 -2.556002,-1.009887 z m 4.049873,0 0.01047,0.212408 c 0.435926,0 0.680166,0.128427 0.734763,0.386529 0.02033,0.09243 0.02962,0.262911 0.03128,0.50841 l -0.0035,4.697656 c -0.0037,0.350838 -0.05357,0.574827 -0.149701,0.672051 -0.09628,0.09652 -0.258972,0.157014 -0.494464,0.181049 l -0.01047,0.212489 h 4.345874 l 0.11149,-1.065589 h -0.198541 c -0.05673,0.29025 -0.186647,0.498248 -0.393462,0.616347 -0.207446,0.11897 -0.574198,0.177586 -1.103879,0.177586 h -0.410952 c -0.476659,0 -0.752413,-0.172306 -0.825291,-0.518888 -0.01496,-0.06854 -0.02016,-0.142056 -0.02088,-0.222808 l 0.01732,-4.749893 c 0,-0.350287 0.04421,-0.584991 0.135906,-0.699944 0.09258,-0.114482 0.259601,-0.178529 0.501399,-0.194995 l -0.0103,-0.212408 z m -3.980304,0.257632 c 0.738624,0 1.341578,0.29096 1.807366,0.877606 0.465629,0.58688 0.696475,1.391213 0.696475,2.409769 0,0.965136 -0.234154,1.737878 -0.703409,2.319165 -0.469333,0.58113 -1.093874,0.870594 -1.870001,0.870594 -0.745637,0 -1.350324,-0.298526 -1.814301,-0.898405 -0.46358,-0.599961 -0.692928,-1.378845 -0.692928,-2.336657 0,-0.984201 0.232185,-1.772069 0.699941,-2.361001 0.467441,-0.58822 1.0934,-0.880993 1.876935,-0.880993 z m 9.994249,1.009967 c -0.10604,0 -0.186804,0.03577 -0.247235,0.107934 -0.06184,0.07185 -0.08083,0.158909 -0.05924,0.264644 0.02087,0.102582 0.07878,0.192397 0.170656,0.268108 0.0914,0.07564 0.189955,0.114948 0.296004,0.114948 0.102499,0 0.180656,-0.03931 0.236752,-0.114948 0.05618,-0.07564 0.07328,-0.165524 0.05222,-0.268108 -0.02157,-0.10574 -0.07744,-0.192792 -0.163646,-0.264724 -0.08723,-0.07208 -0.183023,-0.107934 -0.285522,-0.107934 z m 2.865865,0.720819 c -0.180105,0.692852 -0.570494,1.067796 -1.169983,1.128227 l 0.0068,0.198541 h 0.699939 l -0.01396,2.347055 c 10e-4,0.401262 0.01346,0.668426 0.04175,0.804413 0.06903,0.325468 0.281583,0.491 0.637302,0.491 0.514714,0 1.054561,-0.313573 1.619228,-0.940244 l -0.17057,-0.146227 c -0.407722,0.412683 -0.768171,0.619815 -1.083004,0.619815 -0.193497,0 -0.313413,-0.111241 -0.358714,-0.330827 -0.01247,-0.05334 -0.01732,-0.115646 -0.01732,-0.188063 l 0.0068,-2.656924 h 1.069057 l -0.01047,-0.316959 h -1.055085 v -1.009807 z m 4.133464,0.884458 c -0.597991,0 -1.084342,0.29033 -1.462516,0.867127 -0.376207,0.577744 -0.492655,1.217886 -0.344771,1.922238 0.08706,0.412529 0.260468,0.732245 0.525822,0.957573 0.26496,0.225332 0.601064,0.33784 1.002954,0.33784 0.37408,0 0.895016,-0.09479 1.114281,-0.285603 0.219814,-0.190663 0.422297,-0.499665 0.609413,-0.92275 l -0.149701,-0.156782 c -0.298446,0.548982 -0.900531,0.825367 -1.354659,0.825367 -0.624307,0 -1.006658,-0.342563 -1.149184,-1.023831 a 2.4907623,2.4907623 0 0 1 -0.04175,-0.278591 c 0.742723,-0.117541 1.305575,-0.325783 1.685403,-0.62675 0.379597,-0.301198 0.760687,-0.620442 0.689542,-0.957652 -0.04238,-0.200432 -0.146393,-0.358007 -0.306478,-0.477051 -0.16215,-0.119053 -0.583023,-0.181133 -0.81836,-0.181133 z m -6.536144,0.02442 -1.288476,0.296002 v 0.229821 l 0.445695,-0.05571 c 0.215876,0 0.342957,0.0977 0.383061,0.292455 0.01346,0.06517 0.02205,0.156782 0.02443,0.271658 l -0.01396,2.106755 c -0.0037,0.29151 -0.03592,0.460981 -0.100937,0.511877 -0.06563,0.05097 -0.238644,0.07667 -0.518889,0.07667 l -0.0068,0.19846 h 2.044045 l -0.0035,-0.198541 c -0.284024,0 -0.46815,-0.02239 -0.550168,-0.06618 -0.08068,-0.04333 -0.136305,-0.12251 -0.160172,-0.243688 -0.01852,-0.08729 -0.02664,-0.237777 -0.02789,-0.445698 l 0.007,-2.973881 h -0.233366 z m 6.208864,0.389995 c 0.124405,0 0.244553,0.04807 0.365569,0.142754 0.119435,0.09439 0.192162,0.19933 0.215956,0.313414 0.116593,0.560173 -0.379989,0.94733 -1.49742,1.163049 -0.03183,-0.408351 0.03893,-0.779201 0.219422,-1.114281 0.179159,-0.334845 0.412449,-0.504943 0.696473,-0.504941 z"
     id="path11"
     inkscape:connector-curvature="0"
     style="fill:#003b57;stroke-width:0.07878667" />
  <path
     d="M 13.043287,5.0891151 H 1.9550065 c -0.7431948,0 -1.35119158,0.6080773 -1.35119158,1.3511933 V 18.668634 c 0,0.743119 0.60799678,1.351194 1.35119158,1.351194 H 9.2579808 C 9.175098,16.386026 10.415987,9.3339847 13.043287,5.0891151 Z"
     id="path13"
     inkscape:connector-curvature="0"
     style="fill:#0f80cc;stroke-width:0.07878667" />
  <path
     d="M 12.640451,5.4832864 H 1.9550065 c -0.5277132,0 -0.95710078,0.4293066 -0.95710078,0.9570996 V 17.776454 C 3.4179177,16.847718 7.0500628,16.0463 9.5614671,16.082699 10.066174,13.443819 11.549413,8.2722559 12.640451,5.4832864 Z"
     id="path15"
     style="fill:url(#a);stroke-width:0.07878667"
     inkscape:connector-curvature="0" />
  <path
     d="M 15.629617,4.6888805 C 14.870193,4.0117089 13.950673,4.2836793 13.043287,5.0891151 12.908561,5.2087124 12.774152,5.3414694 12.640451,5.4832864 11.088038,7.1301645 9.6470292,10.180548 9.1993635,12.510273 c 0.1744337,0.353676 0.310656,0.804966 0.4003153,1.149736 0.023006,0.08839 0.043727,0.171431 0.06035,0.24203 0.0394,0.167178 0.06059,0.275518 0.06059,0.275518 0,0 -0.01394,-0.05262 -0.07107,-0.21824 -0.01087,-0.03176 -0.023006,-0.06642 -0.037344,-0.107236 a 1.2432539,1.2432539 0 0 0 -0.023949,-0.05925 C 9.4870139,13.557429 9.2069274,13.0606 9.0836261,12.844254 A 23.692969,23.692969 0 0 0 8.807006,13.709567 c 0.3558794,0.651172 0.5727792,1.767105 0.5727792,1.767105 0,0 -0.018831,-0.07233 -0.1082514,-0.324756 C 9.1921158,14.928712 8.796686,14.235784 8.7030087,14.073798 8.5427565,14.665407 8.4790968,15.064776 8.5365318,15.162 c 0.1114824,0.188379 0.2176087,0.51353 0.3108921,0.873036 0.2105967,0.809927 0.3569038,1.79602 0.3569038,1.79602 0,0 0.00472,0.06538 0.012765,0.165923 -0.02931,0.680162 -0.011751,1.385382 0.04097,2.022766 0.069727,0.843806 0.2010636,1.568647 0.3684854,1.956589 l 0.1136901,-0.06193 C 9.4944187,21.150101 9.3945174,20.148488 9.4382439,18.993317 c 0.066181,-1.765609 0.4724843,-3.894977 1.2232421,-6.11432 1.268466,-3.3502503 3.028245,-6.0382934 4.638882,-7.322044 -1.468033,1.3258222 -3.454876,5.617257 -4.049636,7.206387 -0.665984,1.779632 -1.137916,3.449595 -1.4223368,5.049595 0.4907628,-1.500019 2.0774478,-2.144729 2.0774478,-2.144729 0,0 0.778176,-0.959782 1.687611,-2.330985 -0.544732,0.124239 -1.439276,0.336969 -1.738901,0.462871 -0.441994,0.185386 -0.56104,0.248652 -0.56104,0.248652 0,0 1.431554,-0.871855 2.659838,-1.266576 1.689187,-2.660471 3.529565,-6.4400255 1.676266,-8.0932856"
     id="path17"
     inkscape:connector-curvature="0"
     style="fill:#003b57;stroke-width:0.07878667" />
</svg>
