<?xml version="1.0" encoding="UTF-8" standalone="no"?>
<svg
   xmlns:dc="http://purl.org/dc/elements/1.1/"
   xmlns:cc="http://creativecommons.org/ns#"
   xmlns:rdf="http://www.w3.org/1999/02/22-rdf-syntax-ns#"
   xmlns:svg="http://www.w3.org/2000/svg"
   xmlns="http://www.w3.org/2000/svg"
   xmlns:sodipodi="http://sodipodi.sourceforge.net/DTD/sodipodi-0.dtd"
   xmlns:inkscape="http://www.inkscape.org/namespaces/inkscape"
   width="128"
   height="128"
   viewBox="0 0 26.2144 26.221024"
   preserveAspectRatio="xMidYMid"
   version="1.1"
   id="svg19"
   sodipodi:docname="sqlite.svg"
   inkscape:version="0.92.3 (2405546, 2018-03-11)">
  <metadata
     id="metadata23">
    <rdf:RDF>
      <cc:Work
         rdf:about="">
        <dc:format>image/svg+xml</dc:format>
        <dc:type
           rdf:resource="http://purl.org/dc/dcmitype/StillImage" />
        <dc:title></dc:title>
      </cc:Work>
    </rdf:RDF>
  </metadata>
  <sodipodi:namedview
     pagecolor="#ffffff"
     bordercolor="#666666"
     borderopacity="1"
     objecttolerance="10"
     gridtolerance="10"
     guidetolerance="10"
     inkscape:pageopacity="0"
     inkscape:pageshadow="2"
     inkscape:window-width="1920"
     inkscape:window-height="1028"
     id="namedview21"
     showgrid="false"
     inkscape:zoom="1.6963163"
     inkscape:cx="227.05356"
     inkscape:cy="96.242395"
     inkscape:window-x="1080"
     inkscape:window-y="811"
     inkscape:window-maximized="1"
     inkscape:current-layer="svg19" />
  <defs
     id="defs9">
    <linearGradient
       x1="92.697227"
       y1="17.660637"
       x2="92.697227"
       y2="157.9556"
       id="a"
       gradientTransform="matrix(0.04613167,0,0,0.04870965,0.96610173,5.777245)"
       gradientUnits="userSpaceOnUse">
      <stop
         stop-color="#97D9F6"
         offset="0%"
         id="stop2" />
      <stop
         stop-color="#0F80CC"
         offset="92.024%"
         id="stop4" />
      <stop
         stop-color="#0F80CC"
         offset="100%"
         id="stop6" />
    </linearGradient>
  </defs>
  <path
     d="m 10.18696,11.088482 c -0.3233363,0 -0.5862823,0.09576 -0.7878403,0.287027 -0.2015104,0.191507 -0.303759,0.442508 -0.303759,0.750106 0,0.15937 0.025361,0.304708 0.075371,0.437863 0.050057,0.13344 0.127941,0.257067 0.232608,0.368796 0.104666,0.111777 0.314188,0.26361 0.6264323,0.456729 0.383207,0.233888 0.633922,0.423738 0.754279,0.571967 0.120404,0.148087 0.180179,0.303285 0.180179,0.465119 0,0.216633 -0.07129,0.389606 -0.217913,0.519586 -0.146806,0.130074 -0.343197,0.194827 -0.586613,0.194827 -0.2567833,0 -0.4804793,-0.09049 -0.6725563,-0.270197 C 9.2950697,14.690267 9.1980834,14.452162 9.1959028,14.153711 H 9.076447 v 1.08321 h 0.1194558 c 0.0365,-0.102585 0.086937,-0.155009 0.1529699,-0.155009 0.03176,0 0.106183,0.02185 0.222084,0.06281 0.282001,0.100357 0.5135653,0.148752 0.6955943,0.148752 0.313665,0 0.581446,-0.109833 0.804526,-0.333102 0.222794,-0.223173 0.335235,-0.492376 0.335235,-0.806659 0,-0.243652 -0.07424,-0.460522 -0.219951,-0.64947 -0.145765,-0.189234 -0.429188,-0.409329 -0.852783,-0.662081 -0.3644823,-0.219002 -0.6010713,-0.397333 -0.7102413,-0.536367 -0.109359,-0.138844 -0.165531,-0.292429 -0.165531,-0.460947 0,-0.182266 0.06698,-0.328694 0.199045,-0.43791 0.132066,-0.109266 0.305134,-0.1634 0.5217193,-0.1634 0.243652,0 0.446822,0.07234 0.607566,0.217912 0.160602,0.145813 0.253465,0.347893 0.280769,0.607567 h 0.119456 v -0.938583 h -0.111065 c -0.0136,0.04783 -0.02616,0.0784 -0.03774,0.09215 -0.01123,0.01366 -0.03285,0.02095 -0.06494,0.02095 -0.03864,0 -0.10751,-0.01626 -0.205351,-0.04821 -0.209522,-0.07054 -0.402689,-0.106847 -0.580356,-0.106847 z m 3.90327,0 c -0.393968,0 -0.751672,0.09291 -1.074819,0.278683 -0.323668,0.185441 -0.579883,0.442982 -0.768926,0.771012 -0.188997,0.32803 -0.282854,0.676348 -0.282854,1.04761 0,0.49868 0.163255,0.943037 0.492376,1.332502 0.329262,0.389179 0.723845,0.631693 1.181665,0.724936 0.104666,0.05451 0.254413,0.1953 0.450472,0.423214 0.220899,0.257163 0.40781,0.442652 0.56149,0.553101 a 1.6871724,1.6871724 0 0 0 0.494415,0.245169 c 0.175391,0.05337 0.364957,0.07963 0.569928,0.07963 0.24825,0 0.470477,-0.04319 0.66625,-0.132018 l -0.04399,-0.10898 c -0.113625,0.041 -0.234834,0.06077 -0.362444,0.06077 -0.173258,0 -0.348318,-0.05712 -0.523804,-0.17179 -0.17525,-0.114999 -0.394395,-0.334334 -0.655776,-0.657908 -0.122868,-0.155008 -0.207673,-0.252848 -0.255645,-0.291197 0.500957,-0.09784 0.912842,-0.340592 1.234094,-0.729156 0.321109,-0.388326 0.481853,-0.831545 0.481853,-1.328331 0,-0.589789 -0.209854,-1.08553 -0.626432,-1.489643 -0.416958,-0.404207 -0.929671,-0.607613 -1.537853,-0.607613 z m 2.436664,0 0.0063,0.127798 c 0.262281,0 0.409232,0.07727 0.442081,0.232561 0.01223,0.05561 0.01782,0.158184 0.01882,0.305892 l -0.0021,2.826412 c -0.0022,0.211087 -0.03223,0.345853 -0.09007,0.404349 -0.05793,0.05807 -0.155814,0.09447 -0.297501,0.108931 l -0.0063,0.127847 h 2.614757 l 0.06708,-0.641127 h -0.119455 c -0.03413,0.174633 -0.112299,0.299778 -0.236732,0.370834 -0.124813,0.07158 -0.345475,0.106847 -0.664165,0.106847 h -0.247255 c -0.286789,0 -0.4527,-0.10367 -0.496548,-0.312196 -0.009,-0.04124 -0.01213,-0.08547 -0.01256,-0.134056 l 0.01042,-2.857841 c 0,-0.210755 0.0266,-0.351968 0.08177,-0.421131 0.0557,-0.06888 0.156193,-0.107415 0.301674,-0.117322 l -0.0062,-0.127798 z m -2.394807,0.155008 c 0.444404,0 0.80718,0.17506 1.087428,0.528024 0.280152,0.353105 0.419044,0.837043 0.419044,1.449872 0,0.580688 -0.140882,1.045619 -0.423216,1.395359 -0.282381,0.349645 -0.658145,0.523805 -1.125113,0.523805 -0.448623,0 -0.812442,-0.179612 -1.0916,-0.540538 -0.27892,-0.360975 -0.41691,-0.829602 -0.41691,-1.405883 0,-0.592159 0.139697,-1.066191 0.421129,-1.42053 0.281243,-0.353911 0.65786,-0.530062 1.129285,-0.530062 z m 6.013183,0.607661 c -0.0638,0 -0.112393,0.02152 -0.148752,0.06494 -0.03721,0.04323 -0.04863,0.09561 -0.03564,0.159227 0.01256,0.06172 0.0474,0.115758 0.102678,0.161311 0.05499,0.04551 0.114289,0.06916 0.178095,0.06916 0.06167,0 0.108694,-0.02365 0.142445,-0.06916 0.0338,-0.04551 0.04409,-0.09959 0.03142,-0.161311 -0.01298,-0.06362 -0.04659,-0.115996 -0.09846,-0.159275 -0.05248,-0.04337 -0.110118,-0.06494 -0.171788,-0.06494 z m 1.724289,0.433691 c -0.108363,0.416864 -0.343246,0.642455 -0.703937,0.678814 l 0.0041,0.119455 h 0.421128 l -0.0084,1.412139 c 6.06e-4,0.241425 0.0081,0.402168 0.02512,0.483987 0.04153,0.195822 0.169419,0.295417 0.383442,0.295417 0.309685,0 0.634492,-0.188666 0.974232,-0.565711 l -0.102626,-0.08798 c -0.245312,0.248297 -0.462181,0.372921 -0.651605,0.372921 -0.11642,0 -0.188569,-0.06693 -0.215825,-0.199047 -0.0075,-0.03209 -0.01042,-0.06958 -0.01042,-0.113151 l 0.0041,-1.598576 h 0.643213 l -0.0063,-0.190703 h -0.634824 v -0.607565 z m 2.486958,0.532147 c -0.35979,0 -0.65241,0.174681 -0.879944,0.521719 -0.22635,0.347608 -0.296413,0.732759 -0.207436,1.156542 0.05238,0.248204 0.156714,0.440566 0.316368,0.576138 0.159417,0.135574 0.361639,0.203266 0.603442,0.203266 0.22507,0 0.538499,-0.05703 0.670423,-0.171837 0.132254,-0.114715 0.254081,-0.300631 0.366662,-0.555186 l -0.09007,-0.09433 c -0.179564,0.330303 -0.541817,0.496594 -0.81505,0.496594 -0.375623,0 -0.60567,-0.206108 -0.691423,-0.616003 a 1.4986028,1.4986028 0 0 1 -0.02512,-0.167618 c 0.44687,-0.07072 0.785518,-0.196012 1.014047,-0.377093 0.22839,-0.18122 0.457678,-0.373298 0.414873,-0.576185 -0.0255,-0.120593 -0.08808,-0.2154 -0.184397,-0.287025 -0.09756,-0.07163 -0.350784,-0.108981 -0.492378,-0.108981 z m -3.932565,0.01469 -0.77523,0.178094 v 0.138275 l 0.268159,-0.03352 c 0.129885,0 0.206345,0.05878 0.230474,0.17596 0.0081,0.03921 0.01327,0.09433 0.0147,0.163447 l -0.0084,1.267559 c -0.0022,0.175391 -0.02161,0.277356 -0.06073,0.307978 -0.03949,0.03067 -0.143584,0.04613 -0.312197,0.04613 l -0.0041,0.119406 h 1.229829 l -0.0021,-0.119455 c -0.170887,0 -0.281669,-0.01347 -0.331016,-0.03982 -0.04854,-0.02607 -0.08201,-0.07371 -0.09637,-0.146618 -0.01114,-0.05252 -0.01603,-0.143062 -0.01678,-0.268161 l 0.0042,-1.789278 h -0.140408 z m 3.735652,0.234646 c 0.07485,0 0.147139,0.02892 0.21995,0.08589 0.07186,0.05679 0.115617,0.11993 0.129933,0.18857 0.07015,0.337036 -0.228626,0.569975 -0.900944,0.699765 -0.01915,-0.24569 0.02342,-0.468817 0.132018,-0.670423 0.107794,-0.201464 0.248156,-0.303806 0.419043,-0.303805 z"
     id="path11"
     inkscape:connector-curvature="0"
     style="fill:#003b57;stroke-width:0.04740313" />
  <path
     d="M 8.4504884,6.2490002 H 1.7790655 c -0.4471538,0 -0.81296377,0.3658584 -0.81296377,0.8129648 v 7.357345 c 0,0.447108 0.36580997,0.812965 0.81296377,0.812965 H 6.1730046 C 6.123137,13.045946 6.869736,8.8029868 8.4504884,6.2490002 Z"
     id="path13"
     inkscape:connector-curvature="0"
     style="fill:#0f80cc;stroke-width:0.04740313" />
  <path
     d="M 8.2081162,6.486159 H 1.7790655 c -0.3175062,0 -0.5758534,0.2582985 -0.5758534,0.5758527 V 13.882517 C 2.659247,13.32373 4.8445791,12.841545 6.3556015,12.863445 6.659266,11.275725 7.5516776,8.1641825 8.2081162,6.486159 Z"
     id="path15"
     style="fill:url(#a);stroke-width:0.04740313"
     inkscape:connector-curvature="0" />
  <path
     d="M 10.006591,6.0081933 C 9.5496727,5.6007634 8.9964304,5.7643982 8.4504884,6.2490002 8.3694289,6.3209576 8.2885594,6.4008328 8.2081162,6.486159 7.2740847,7.4770269 6.4070814,9.3123328 6.1377367,10.714044 c 0.1049505,0.212794 0.1869106,0.484319 0.2408554,0.691755 0.013842,0.05318 0.026309,0.103144 0.036311,0.145621 0.023702,0.100585 0.036453,0.165769 0.036453,0.165769 0,0 -0.00839,-0.03166 -0.042758,-0.131307 -0.00654,-0.01911 -0.013842,-0.03996 -0.022469,-0.06452 a 0.74802152,0.74802152 0 0 0 -0.01441,-0.03565 C 6.3108057,11.344079 6.1422876,11.045155 6.0681016,10.914987 a 14.255214,14.255214 0 0 0 -0.1664324,0.520628 c 0.2141199,0.391787 0.3446208,1.063204 0.3446208,1.063204 0,0 -0.01133,-0.04352 -0.065131,-0.195394 C 6.133376,12.169131 5.89546,11.752221 5.8390977,11.65476 c -0.096418,0.35595 -0.1347198,0.596236 -0.1001632,0.654732 0.067075,0.113341 0.1309274,0.308973 0.1870527,0.525275 0.1267085,0.487304 0.2147363,1.080601 0.2147363,1.080601 0,0 0.00284,0.03934 0.00768,0.09983 -0.017635,0.409229 -0.00707,0.833535 0.02465,1.217026 0.041952,0.507688 0.1209728,0.943799 0.2217045,1.17721 l 0.068403,-0.03726 C 6.3152609,15.912319 6.2551538,15.309684 6.2814625,14.614659 6.321281,13.552355 6.5657393,12.27119 7.0174437,10.935891 7.7806343,8.9201668 8.8394307,7.3028673 9.8084937,6.5304804 8.9252304,7.3281803 7.7298181,9.9101819 7.3719718,10.866304 6.9712731,11.937045 6.6873283,12.941802 6.5162029,13.904465 6.811477,13.001957 7.7661288,12.614058 7.7661288,12.614058 c 0,0 0.4682008,-0.577466 1.0153754,-1.40247 -0.3277454,0.07475 -0.8659607,0.202742 -1.0462348,0.278493 -0.2659317,0.11154 -0.3375577,0.149605 -0.3375577,0.149605 0,0 0.861315,-0.524564 1.6003299,-0.762054 C 10.014365,9.2769228 11.121655,7.0029009 10.006591,6.0081933"
     id="path17"
     inkscape:connector-curvature="0"
     style="fill:#003b57;stroke-width:0.04740313" />
</svg>
